<svg width="181" height="66" viewBox="0 0 181 66" fill="none" xmlns="http://www.w3.org/2000/svg">
<path d="M7.60059 5.90527V22.6484H14.1647C15.4085 22.6484 16.5601 22.4863 17.6196 22.1621C18.7251 21.8379 19.6924 21.3516 20.5216 20.7032C21.3508 20.0084 21.9957 19.1284 22.4563 18.0632C22.9169 16.9979 23.1473 15.7242 23.1473 14.2421C23.1473 12.76 22.9169 11.5095 22.4563 10.4905C21.9957 9.42526 21.3508 8.56842 20.5216 7.92C19.6924 7.22527 18.7251 6.71579 17.6196 6.39158C16.5601 6.06737 15.4085 5.90527 14.1647 5.90527H7.60059ZM30.7479 14.7284C30.7479 17.6 30.1951 19.9389 29.0895 21.7453C27.984 23.5516 26.6712 24.9642 25.1511 25.9832C23.677 26.9558 22.1569 27.6274 20.5907 27.9979C19.0706 28.3684 17.8499 28.5537 16.9286 28.5537H7.60059V48.6316H0V0H16.9286C18.8633 0 20.6598 0.347368 22.3181 1.0421C24.0225 1.73684 25.4965 2.73263 26.7403 4.02948C27.984 5.28 28.9514 6.80842 29.6423 8.61474C30.3793 10.4211 30.7479 12.4589 30.7479 14.7284Z" fill="#FFE536"/>
<path d="M135.179 26.6779C134.995 25.5663 134.557 24.5937 133.867 23.76C133.176 22.9263 132.346 22.2316 131.379 21.6758C130.458 21.0737 129.421 20.6337 128.27 20.3558C127.164 20.0779 126.036 19.9389 124.884 19.9389C123.963 19.9389 122.995 20.0547 121.982 20.2863C120.462 20.6105 119.103 21.2358 117.905 22.1621C116.754 23.0421 115.786 24.1074 115.003 25.3579C114.266 26.5621 113.76 27.8821 113.483 29.3179C113.253 30.7537 113.322 32.1895 113.69 33.6253L135.179 26.6779ZM139.671 42.5874C138.888 43.6989 137.851 44.6947 136.561 45.5747C135.318 46.4547 133.936 47.1958 132.416 47.7979C130.941 48.3537 129.421 48.7705 127.855 49.0484C126.289 49.3726 124.838 49.5347 123.502 49.5347C120.83 49.5347 118.32 49.0716 115.971 48.1453C113.667 47.1726 111.687 45.8295 110.028 44.1158C108.37 42.4021 107.126 40.3411 106.297 37.9326C105.468 35.5242 105.215 32.8842 105.537 30.0126C105.813 27.6042 106.481 25.4042 107.541 23.4126C108.6 21.4211 109.936 19.7074 111.548 18.2716C113.161 16.8358 115.003 15.7242 117.076 14.9368C119.195 14.1032 121.452 13.6863 123.848 13.6863C125.69 13.6863 127.625 13.9411 129.652 14.4505C131.678 14.96 133.544 15.8168 135.248 17.0211C136.953 18.1789 138.335 19.7305 139.394 21.6758C140.5 23.5747 141.03 25.9137 140.983 28.6926L114.381 37.7242C115.487 39.6695 117.03 41.1053 119.011 42.0316C120.992 42.9116 123.041 43.3516 125.16 43.3516C126.496 43.3516 127.878 43.1895 129.306 42.8653C130.734 42.4947 132.139 41.9853 133.521 41.3368C134.903 40.6884 136.193 39.9242 137.39 39.0442C138.588 38.1179 139.578 37.1221 140.362 36.0568L139.671 42.5874Z" fill="#424242"/>
<path d="M175.193 26.6779C175.009 25.5663 174.571 24.5937 173.88 23.76C173.189 22.9263 172.36 22.2316 171.393 21.6758C170.472 21.0737 169.435 20.6337 168.284 20.3558C167.178 20.0779 166.049 19.9389 164.898 19.9389C163.977 19.9389 163.009 20.0547 161.996 20.2863C160.476 20.6105 159.117 21.2358 157.919 22.1621C156.767 23.0421 155.8 24.1074 155.017 25.3579C154.28 26.5621 153.773 27.8821 153.497 29.3179C153.267 30.7537 153.336 32.1895 153.704 33.6253L175.193 26.6779ZM179.684 42.5874C178.901 43.6989 177.865 44.6947 176.575 45.5747C175.331 46.4547 173.949 47.1958 172.429 47.7979C170.955 48.3537 169.435 48.7705 167.869 49.0484C166.303 49.3726 164.852 49.5347 163.516 49.5347C160.844 49.5347 158.334 49.0716 155.984 48.1453C153.681 47.1726 151.7 45.8295 150.042 44.1158C148.384 42.4021 147.14 40.3411 146.311 37.9326C145.482 35.5242 145.228 32.8842 145.551 30.0126C145.827 27.6042 146.495 25.4042 147.555 23.4126C148.614 21.4211 149.95 19.7074 151.562 18.2716C153.174 16.8358 155.017 15.7242 157.09 14.9368C159.209 14.1032 161.466 13.6863 163.861 13.6863C165.704 13.6863 167.639 13.9411 169.665 14.4505C171.692 14.96 173.558 15.8168 175.262 17.0211C176.967 18.1789 178.349 19.7305 179.408 21.6758C180.514 23.5747 181.043 25.9137 180.997 28.6926L154.395 37.7242C155.501 39.6695 157.044 41.1053 159.025 42.0316C161.005 42.9116 163.055 43.3516 165.174 43.3516C166.51 43.3516 167.892 43.1895 169.32 42.8653C170.748 42.4947 172.153 41.9853 173.535 41.3368C174.917 40.6884 176.207 39.9242 177.404 39.0442C178.602 38.1179 179.592 37.1221 180.375 36.0568L179.684 42.5874Z" fill="#424242"/>
<path fill-rule="evenodd" clip-rule="evenodd" d="M32.3889 29.8737C32.3889 27.5579 32.8265 25.4042 33.7017 23.4126C34.5769 21.4211 35.7516 19.6842 37.2256 18.2021C38.6997 16.6737 40.4271 15.4926 42.4079 14.6589C44.4347 13.7789 46.5767 13.3389 48.8338 13.3389C51.4134 13.3389 53.6475 14.0105 55.5362 15.3537L57.8854 7.98947H65.4169L60.3729 18.0632C61.893 19.5453 63.0907 21.3053 63.9659 23.3432C64.8411 25.3347 65.2787 27.5116 65.2787 29.8737C65.2787 31.9579 64.9102 33.9263 64.1732 35.7789C63.4362 37.5853 62.4458 39.2295 61.2021 40.7116L64.1041 48.2842C64.8872 50.3221 65.2327 52.1747 65.1405 53.8421C65.0945 55.5095 64.7029 56.9916 63.9659 58.2884C63.2749 59.6316 62.3306 60.7663 61.133 61.6926C59.9353 62.6653 58.6225 63.4758 57.1945 64.1242C55.7665 64.7726 54.2694 65.2358 52.7032 65.5137C51.1831 65.8379 49.7321 66 48.3501 66C47.1064 66 45.8396 65.8379 44.5498 65.5137C43.3061 65.1895 42.0854 64.7495 40.8877 64.1937C39.7361 63.6842 38.6536 63.0589 37.6402 62.3179C36.6268 61.6232 35.7746 60.8821 35.0836 60.0947V51.2716C35.7285 52.2442 36.5116 53.1474 37.4329 53.9811C38.3542 54.8611 39.3676 55.6253 40.4732 56.2737C41.5787 56.9221 42.7303 57.4316 43.928 57.8021C45.1256 58.1726 46.3463 58.3579 47.5901 58.3579H47.7283C49.4327 58.3579 51.0449 58.1032 52.565 57.5937C54.0851 57.0842 55.3519 56.3663 56.3653 55.44C57.3787 54.56 58.0697 53.4484 58.4382 52.1053C58.8528 50.8084 58.7837 49.3495 58.2309 47.7284L56.9181 43.56C55.8586 44.44 54.6149 45.1347 53.1869 45.6442C51.805 46.1537 50.3539 46.4084 48.8338 46.4084C46.5767 46.4084 44.4347 45.9916 42.4079 45.1579C40.4271 44.2779 38.6997 43.0968 37.2256 41.6147C35.7516 40.0863 34.5769 38.3263 33.7017 36.3347C32.8265 34.2968 32.3889 32.1432 32.3889 29.8737ZM40.6805 34.5979C40.1737 33.3937 39.9204 32.0968 39.9204 30.7074C39.9204 29.3642 40.1737 28.1137 40.6805 26.9558C41.1872 25.7516 41.8781 24.7095 42.7533 23.8295C43.6746 22.9495 44.7111 22.2547 45.8627 21.7453C47.0603 21.2358 48.3271 20.9811 49.663 20.9811C50.9988 20.9811 52.2426 21.2358 53.3942 21.7453C54.5918 22.2084 55.6283 22.88 56.5035 23.76C57.3787 24.64 58.0697 25.6821 58.5764 26.8863C59.1292 28.0442 59.4056 29.2947 59.4056 30.6379C59.4056 32.0274 59.1292 33.3242 58.5764 34.5284C58.0697 35.7326 57.3557 36.7747 56.4344 37.6547C55.5592 38.5347 54.5227 39.2295 53.3251 39.7389C52.1735 40.2484 50.9297 40.5032 49.5939 40.5032C48.3041 40.5032 47.0603 40.2484 45.8627 39.7389C44.7111 39.2295 43.6746 38.5347 42.7533 37.6547C41.8781 36.7747 41.1872 35.7558 40.6805 34.5979Z" fill="#FFE536"/>
<path fill-rule="evenodd" clip-rule="evenodd" d="M70.6483 48.6316V0H88.1296C92.0451 0 95.1775 0.88 97.5267 2.64C99.876 4.35369 101.051 7.06316 101.051 10.7684C101.051 12.0653 100.889 13.2232 100.567 14.2421C100.291 15.2611 99.899 16.1642 99.3923 16.9516C98.8856 17.6926 98.3098 18.3411 97.6649 18.8968C97.02 19.4063 96.3521 19.8463 95.6611 20.2168C94.0489 21.0505 92.2294 21.5368 90.2025 21.6758L90.9626 21.8147C91.4693 21.8611 92.1142 22.0232 92.8973 22.3011C93.7264 22.5326 94.6017 22.9263 95.5229 23.4821C96.4903 23.9916 97.3655 24.7326 98.1486 25.7053C98.9778 26.6316 99.6687 27.8358 100.221 29.3179C100.774 30.7537 101.051 32.5137 101.051 34.5979C101.051 36.8674 100.728 38.8821 100.083 40.6421C99.4384 42.4021 98.5402 43.8842 97.3885 45.0884C96.2369 46.2463 94.878 47.1263 93.3119 47.7284C91.7457 48.3305 90.0183 48.6316 88.1296 48.6316H70.6483ZM85.2967 42.7263H78.2489V24.6632H85.2967C90.7323 24.6632 93.4501 27.6737 93.4501 33.6947C93.4501 36.8905 92.713 39.2063 91.239 40.6421C89.811 42.0316 87.8302 42.7263 85.2967 42.7263ZM78.2489 18.7579V5.90527H85.2967C87.9224 5.90527 89.9261 6.36842 91.3081 7.29474C92.7361 8.22105 93.4501 9.84211 93.4501 12.1579C93.4501 16.5579 90.7323 18.7579 85.2967 18.7579H78.2489Z" fill="#424242"/>
</svg>
